<?xml version="1.0" ?><svg style="enable-background:new 0 0 64 64;" version="1.1" viewBox="0 0 64 64" xml:space="preserve" xmlns="http://www.w3.org/2000/svg" xmlns:xlink="http://www.w3.org/1999/xlink"><style type="text/css">
	.st0{fill:#4267B2;}
	.st1{fill:url(#SVGID_1_);}
	.st2{fill:#FFFFFF;}
	.st3{fill:#C2191E;}
	.st4{fill:#1DA1F3;}
	.st5{fill:#FEFE00;}
	.st6{fill:#25D366;stroke:#FFFFFF;stroke-width:5;stroke-miterlimit:10;}
	.st7{fill:#CB2027;}
	.st8{fill:#0077B5;}
	.st9{fill:url(#SVGID_2_);}
	.st10{fill:url(#SVGID_3_);}
	.st11{fill:#FF004F;}
	.st12{fill:#00F7EF;}
	.st13{fill:#5181B8;}
	.st14{fill:#395976;}
	.st15{fill:#F58220;}
	.st16{fill:#E6162D;}
	.st17{fill:#FF9933;}
</style><g id="guidlines"/><g id="FB"/><g id="ig"/><g id="yt"/><g id="twitter"/><g id="snapchat"/><g id="WA"/><g id="Pinterrest"/><g id="Layer_9"/><g id="Layer_10"/><g id="Layer_11"><g><g><path class="st15" d="M32,2c-7.4,0-13.5,6-13.5,13.5c0,7.4,6,13.5,13.5,13.5s13.5-6,13.5-13.5C45.5,8,39.4,2,32,2z M32,20     c-2.5,0-4.5-2-4.5-4.5c0-2.5,2-4.5,4.5-4.5c2.5,0,4.5,2,4.5,4.5C36.5,18,34.5,20,32,20z"/></g><g><path class="st15" d="M48.6,38.1c-3.4,1.9-7.1,3.2-10.8,3.8l10.5,12.9c1.2,1.5,1.5,3.6,0.4,5.2c-1.7,2.6-5.3,2.7-7.1,0.4     l-9.7-11.9l-9.6,11.9c-0.9,1.1-2.1,1.6-3.4,1.6c-1.3,0-2.6-0.6-3.5-1.8c-1.1-1.5-1-4,0.2-5.5l10.4-13c-3.7-0.7-7.4-1.9-10.7-3.8     c-2.1-1.2-2.8-3.8-1.6-6c1.2-2.1,3.9-2.8,6-1.6c7.6,4.3,17.1,4.3,24.8,0.1c2.1-1.2,4.8-0.4,5.9,1.7     C51.5,34.3,50.7,36.9,48.6,38.1z"/></g></g></g><g id="Layer_12"/><g id="Layer_13"/><g id="Layer_14"/><g id="Layer_15"/><g id="Layer_16"/><g id="Layer_17"/></svg>