<?xml version="1.0" ?><!DOCTYPE svg  PUBLIC '-//W3C//DTD SVG 1.1//EN'  'http://www.w3.org/Graphics/SVG/1.1/DTD/svg11.dtd'><svg enable-background="new 0 0 48 48" height="48px" version="1.1" viewBox="0 0 48 48" width="48px" xml:space="preserve" xmlns="http://www.w3.org/2000/svg" xmlns:xlink="http://www.w3.org/1999/xlink"><g id="Layer_4"><path d="M38.641,18.487l-1.033-6.113v-0.165l-0.117-0.765l-0.216-1.106h-6.662v2.541h5.056l0.38,2.256h-3.901   l-8.008,10.601l-5.256-8.061h2.52v-3.198h-7.994v3.198h2.401l-1.211,2.208c-1.455-0.886-3.158-1.408-4.987-1.408   c-5.298,0-9.593,4.295-9.593,9.591c0,5.301,4.295,9.596,9.593,9.596c5.02,0,9.132-3.857,9.551-8.771H24v-0.025l0.021-0.025   l0.033,0.047l0.015,0.02l8.485-11.231h3.926l0.16,0.966c-4.459,0.823-7.843,4.727-7.843,9.425c0,5.301,4.296,9.596,9.593,9.596   c5.298,0,9.594-4.295,9.594-9.596C47.982,22.855,43.821,18.622,38.641,18.487z M15.021,23.371c0.842,0.971,1.434,2.153,1.66,3.473   h-3.567L15.021,23.371z M9.611,35.26c-3.974,0-7.195-3.217-7.195-7.193c0-3.972,3.222-7.193,7.195-7.193   c1.411,0,2.716,0.421,3.827,1.122l-2.659,4.849h-0.002l-1.124,2.047l0,0l-0.007,0.016l2.343-0.012l0.001-0.004h4.731   C16.308,32.473,13.302,35.26,9.611,35.26z M19.118,26.844c-0.285-2.23-1.331-4.218-2.876-5.698l1.229-2.236l5.173,7.935H19.118z    M38.389,35.26c-3.974,0-7.193-3.217-7.193-7.193c0-3.51,2.52-6.424,5.844-7.057l1.334,7.881l1.969-0.33l-1.287-7.621   c3.657,0.342,6.53,3.383,6.53,7.127C45.585,32.043,42.363,35.26,38.389,35.26z"  fill="#0d6efd"/></g></svg>