<?xml version="1.0" ?><!DOCTYPE svg  PUBLIC '-//W3C//DTD SVG 1.1//EN'  'http://www.w3.org/Graphics/SVG/1.1/DTD/svg11.dtd'><svg enable-background="new 0 0 24 24" height="24px" id="Layer_1" version="1.1" viewBox="0 0 24 24" width="24px" xml:space="preserve" xmlns="http://www.w3.org/2000/svg" xmlns:xlink="http://www.w3.org/1999/xlink"><g><path d="M23.2,0H0.5C0,0,0,0.4,0,1v10c0,0.6,0,1,0.5,1H8v6c0,1.1-1.4,2-2.5,2H3v-1c0-0.6-0.9-1-1.5-1H0v6h1.5C2.1,24,3,23.6,3,23   v-1h2.5c2.2,0,4.5-1.8,4.5-4v-6h7.5c0.6,0,1-0.4,1-1h1c0.6,0,1.5-0.4,1.5-1V4l2.7-2.9C24.2,0.6,24.1,0,23.2,0z M2,23H1v-4h1V23z    M2,10V2h18l-3,3.5V10H2z M20,10h-1V6l1-1V10z" fill="#0d6efd"/><path d="M8.5,5c-1.1,0-2,0.9-2,2s0.9,2,2,2s2-0.9,2-2S9.6,5,8.5,5z M8.5,8c-0.6,0-1-0.4-1-1s0.4-1,1-1s1,0.4,1,1S9.1,8,8.5,8z" fill="#0d6efd" /></g></svg>