<?xml version="1.0" ?><svg viewBox="0 0 64 64" xmlns="http://www.w3.org/2000/svg"><g data-name="Director'S Chair" id="Director_S_Chair"><path d="M27.68,14.24h8.64a1,1,0,0,0,0-2H27.68a1,1,0,0,0,0,2Z" fill="#0d6efd"/><path d="M27.68,18.74h8.64a1,1,0,0,0,0-2H27.68a1,1,0,0,0,0,2Z" fill="#0d6efd"/><path d="M27.68,23.23h8.64a1,1,0,0,0,0-2H27.68a1,1,0,0,0,0,2Z" fill="#0d6efd"/><path d="M27.68,27.74h8.64a1,1,0,0,0,0-2H27.68a1,1,0,0,0,0,2Z" fill="#0d6efd"/><path d="M49.6,24.34l-1-.6a2.94,2.94,0,0,0-4,1c0-.22,0-.44-.08-.66L42.38,11.29A4.94,4.94,0,0,0,37.64,7H26.36a4.94,4.94,0,0,0-4.74,4.29L19.5,24.1c0,.22-.06.43-.08.65a2.93,2.93,0,0,0-4-1l-1,.6a3,3,0,0,0-1.08,4l2.38,4.14a2.68,2.68,0,0,0-.17.91V35a2.7,2.7,0,0,0,2.7,2.69H28.54v2.45A2.11,2.11,0,0,0,29.65,42v.87H22.92a5.82,5.82,0,0,0-5.81,5.82v.12a4.44,4.44,0,1,0,4.69,0v-.12a1.09,1.09,0,0,1,1.12-1.13h6.73v1.25a4.43,4.43,0,1,0,6.79,3.75h0a4.42,4.42,0,0,0-2.09-3.75V47.56h6.73a1.09,1.09,0,0,1,1.12,1.13v.12A4.43,4.43,0,1,0,49,52.56h0a4.41,4.41,0,0,0-2.1-3.75v-.12a5.82,5.82,0,0,0-5.81-5.82H34.35V42a2.11,2.11,0,0,0,1.11-1.85V37.7H45.77A2.7,2.7,0,0,0,48.47,35V33.43a2.78,2.78,0,0,0-.17-.92l2.38-4.13A3,3,0,0,0,49.6,24.34Zm-28.13.09L23.6,11.61A2.94,2.94,0,0,1,26.36,9H37.64a2.94,2.94,0,0,1,2.76,2.61l2.13,12.82a8.59,8.59,0,0,1-.86,5.21,3.77,3.77,0,0,1-.82,1.09H23.15a4.19,4.19,0,0,1-.85-1.13A8.62,8.62,0,0,1,21.47,24.43ZM15.4,26.07l1-.6a1,1,0,0,1,1.3.35l2.84,4.91H18.23a2.58,2.58,0,0,0-1.11.25l-2.07-3.6A1,1,0,0,1,15.4,26.07Zm4,28.93a2.44,2.44,0,1,1,2.44-2.44A2.44,2.44,0,0,1,19.45,55ZM32,55a2.44,2.44,0,1,1,2.44-2.44A2.44,2.44,0,0,1,32,55Zm12.55,0A2.44,2.44,0,1,1,47,52.56,2.44,2.44,0,0,1,44.55,55ZM41.08,44.87a3.8,3.8,0,0,1,3.76,3.28,2.85,2.85,0,0,0-.29,0c-.14,0-.27,0-.4,0a3.08,3.08,0,0,0-3.07-2.6H33.35a1,1,0,0,0-1,1v1.6c-.12,0-.23,0-.35,0s-.23,0-.35,0v-1.6a1,1,0,0,0-1-1H22.92a3.08,3.08,0,0,0-3.07,2.6c-.13,0-.26,0-.4,0a2.85,2.85,0,0,0-.29,0,3.8,3.8,0,0,1,3.76-3.28h7.73a1,1,0,0,0,1-1V42.26h.7v1.61a1,1,0,0,0,1,1Zm-7.62-4.72a.11.11,0,0,1-.11.11h-2.7a.11.11,0,0,1-.11-.11V37.7h2.92Zm13-5.14a.69.69,0,0,1-.7.69H18.23a.69.69,0,0,1-.7-.69V33.43a.7.7,0,0,1,.7-.7c25.62,0,24.26,0,27.54,0a.7.7,0,0,1,.7.7ZM49,27.38,46.88,31a2.58,2.58,0,0,0-1.11-.25H43.43l2.83-4.91a1,1,0,0,1,1.3-.35l1,.6A1,1,0,0,1,49,27.38Z" fill="#0d6efd"/></g></svg>