<?xml version="1.0" ?><svg data-name="Layer 1" id="Layer_1" viewBox="0 0 32 32" xmlns="http://www.w3.org/2000/svg"><defs><style>.cls-1{fill="#0d6efd"}</style></defs><title/><path class="cls-1" d="M28.06,5.9A2.85,2.85,0,0,0,26,5H8V4H5V5H2.5A1.5,1.5,0,0,0,1,6.5V9c0,0.83.67,2,1.5,2H5v5H2v1H4V29H9V17h2V16H8V12.89A7.07,7.07,0,0,0,11.71,14h10A27.36,27.36,0,0,1,23,18.36L23.1,19h1.73A32.58,32.58,0,0,1,25,22.75c0,0.41-.94.73-1.61,0.89L23,23.6V27h8V25.14C31,19.42,31,8.83,28.06,5.9ZM2.5,10A1.19,1.19,0,0,1,2,9V6.5A0.5,0.5,0,0,1,2.5,6H5v4H2.5ZM8,28H5V17H8V28ZM6,16V5H7V16H6Zm17.89,2a22.32,22.32,0,0,0-1.12-4h0.87a8.87,8.87,0,0,1,1.08,4H23.89ZM30,25.13c0,0.31,0,.6,0,0.87H24V24.38c0.69-.22,2-0.79,2-1.88,0-3.24-.19-7.23-1.69-9.29L24.16,13H11.71A6.33,6.33,0,0,1,8,11.7V6H26a1.85,1.85,0,0,1,1.35.61C30.1,9.38,30,20,30,25.13Z" fill="#0d6efd"/><rect class="cls-1" height="1" width="5" x="12" y="7" fill="#0d6efd"/><rect class="cls-1" height="1" width="5" x="12" y="9" fill="#0d6efd"/><rect class="cls-1" height="1" width="5" x="12" y="11" fill="#0d6efd"/></svg>