<?xml version="1.0" ?><!DOCTYPE svg  PUBLIC '-//W3C//DTD SVG 1.1//EN'  'http://www.w3.org/Graphics/SVG/1.1/DTD/svg11.dtd'><svg enable-background="new 0 0 120 120" height="120px" id="Layer_1" version="1.1" viewBox="0 0 120 120" width="120px" xml:space="preserve" xmlns="http://www.w3.org/2000/svg" xmlns:xlink="http://www.w3.org/1999/xlink"><path d="M96.083,56.208h-5.564l1.716-13.583c0.072-0.569-0.104-1.143-0.484-1.573c-0.379-0.431-0.926-0.677-1.5-0.677h-14  c-0.574,0-1.121,0.247-1.5,0.677c-0.38,0.431-0.556,1.004-0.484,1.573l1.716,13.583h-9.398v-4.166c0-1.104-0.896-2-2-2s-2,0.896-2,2  v4.166H56.25v-5.166c0-1.104-0.896-2-2-2h-2.167V32.708h2.167c1.104,0,2-0.896,2-2s-0.896-2-2-2H23.917c-1.104,0-2,0.896-2,2  s0.896,2,2,2h1.5v16.334h-1.5c-1.104,0-2,0.896-2,2v17.916c0,1.104,0.896,2,2,2s2-0.896,2-2V53.042H52.25v27h-4.141  c-0.917-4.141-4.613-7.25-9.026-7.25s-8.109,3.109-9.026,7.25h-4.14v-4.25c0-1.104-0.896-2-2-2s-2,0.896-2,2v6.25  c0,1.104,0.896,2,2,2h7.999c1.104,0,2-0.896,2-2c0-0.14-0.015-0.275-0.042-0.407c0.212-2.702,2.453-4.843,5.209-4.843  c2.895,0,5.25,2.355,5.25,5.25s-2.355,5.25-5.25,5.25c-1.104,0-2,0.896-2,2s0.896,2,2,2c4.413,0,8.109-3.109,9.026-7.25h6.141  c1.104,0,2-0.896,2-2v-0.001l4.153,0c0.024,0,0.046-0.006,0.069-0.007c0.064-0.002,0.126-0.011,0.188-0.019  c0.072-0.009,0.143-0.019,0.212-0.036c0.054-0.013,0.104-0.031,0.156-0.048c0.073-0.024,0.145-0.048,0.213-0.081  c0.047-0.021,0.09-0.048,0.135-0.073c0.066-0.038,0.132-0.075,0.194-0.12c0.044-0.032,0.084-0.068,0.126-0.104  c0.054-0.047,0.108-0.093,0.158-0.146c0.041-0.043,0.076-0.09,0.113-0.137c0.042-0.053,0.084-0.106,0.12-0.164  c0.033-0.052,0.06-0.107,0.088-0.163c0.031-0.061,0.062-0.12,0.086-0.184c0.022-0.058,0.039-0.118,0.056-0.179  c0.019-0.068,0.038-0.134,0.049-0.205c0.004-0.022,0.013-0.042,0.016-0.063c0.355-2.578,2.591-4.522,5.199-4.522  c2.187,0,4.062,1.345,4.85,3.25h-4.815c-1.104,0-2,0.896-2,2s0.896,2,2,2h4.815c-0.788,1.905-2.663,3.25-4.85,3.25  c-1.104,0-2,0.896-2,2s0.896,2,2,2c4.413,0,8.109-3.109,9.026-7.25h6.641c1.104,0,2-0.896,2-2s-0.896-2-2-2H77.4  c0.797-1.928,2.701-3.25,4.85-3.25c2.608,0,4.844,1.944,5.199,4.522c0,0.001,0.001,0.003,0.001,0.004c0,0,0,0,0,0  c0.033,0.236,0.05,0.479,0.05,0.723c0,2.211-1.397,4.198-3.477,4.944c-1.04,0.373-1.58,1.518-1.207,2.558  c0.292,0.816,1.062,1.325,1.882,1.325c0.224,0,0.452-0.038,0.675-0.118c3.348-1.2,5.685-4.226,6.065-7.709l4.644,0.001c0,0,0,0,0,0  c0.53,0,1.039-0.21,1.414-0.585c0.375-0.375,0.586-0.884,0.586-1.415V58.208C98.083,57.104,97.188,56.208,96.083,56.208z   M29.417,32.708h18.666v16.334H29.417V32.708z M78.519,44.375h9.463l-1.495,11.833h-6.474L78.519,44.375z M94.083,78.041l-3.086,0  c-1.261-3.66-4.754-6.249-8.747-6.249c-2.942,0-5.625,1.409-7.335,3.632c-1.692-2.203-4.345-3.632-7.332-3.632  c-3.992,0-7.485,2.589-8.747,6.249l-2.586,0V60.208h22h10h5.833V78.041z" fill="#0d6efd"/></svg>